<?xml version="1.0" encoding="utf-8"?>
<!-- Generator: Adobe Illustrator 21.1.0, SVG Export Plug-In . SVG Version: 6.00 Build 0)  -->
<svg version="1.1" id="Layer_1" xmlns="http://www.w3.org/2000/svg" xmlns:xlink="http://www.w3.org/1999/xlink" x="0px" y="0px"
	 viewBox="0 0 413.3 100" style="enable-background:new 0 0 413.3 100;" xml:space="preserve">
<style type="text/css">
	.st0{fill:#3B5998;}
</style>
<g>
	<path class="st0" d="M41.1,24.6c-4.6,0-5.9,2-5.9,6.5v7.4h12.2l-1.2,12h-11V87H20.5V50.5h-9.9v-12h9.9v-7.2
		c0-12.1,4.9-18.5,18.5-18.5c3,0,6.4,0.2,8.6,0.5v11.3C47.6,24.6,41.1,24.6,41.1,24.6z"/>
	<path class="st0" d="M48.4,61.2c0-13.5,6.4-23.7,19.9-23.7c7.3,0,11.8,3.8,14,8.5v-7.4h14.1V87H82.2v-7.3c-2,4.7-6.6,8.4-14,8.4
		c-13.4,0-19.9-10.2-19.9-23.7v-3.2H48.4z M63.1,64.5c0,7.2,2.6,12,9.5,12c6,0,9.1-4.4,9.1-11.3v-4.9c0-6.9-3.1-11.3-9.1-11.3
		c-6.8,0-9.5,4.8-9.5,12V64.5z"/>
	<path class="st0" d="M126.9,37.5c5.7,0,11.1,1.2,14.1,3.3l-3.3,10.4c-2.2-1.1-5.9-2.2-9.8-2.2c-7.9,0-11.4,4.6-11.4,12.4v2.9
		c0,7.8,3.5,12.4,11.4,12.4c3.9,0,7.5-1.1,9.8-2.2l3.3,10.4c-3,2-8.4,3.3-14.1,3.3c-17.2,0-25.1-9.3-25.1-24.1v-2.2
		C101.8,46.8,109.6,37.5,126.9,37.5z"/>
	<path class="st0" d="M142.8,64.6v-4.3c0-13.8,7.8-22.8,23.8-22.8c15.1,0,21.7,9.2,21.7,22.6v7.7h-30.9c0.3,6.6,3.3,9.6,11.4,9.6
		c5.5,0,11.3-1.1,15.6-3l2.6,10.1c-3.9,2-11.8,3.6-18.8,3.6C149.8,88.1,142.8,78.9,142.8,64.6z M157.5,58.3h17.7v-1.2
		c0-5.3-2.1-9.5-8.6-9.5C160.1,47.6,157.5,51.8,157.5,58.3z"/>
	<path class="st0" d="M242.8,64.3c0,13.5-6.5,23.7-20,23.7c-7.3,0-12.4-3.7-14.5-8.4V87h-13.9V14.2l14.7-1.3v32.4
		c2.1-4.3,6.8-7.7,13.7-7.7c13.4,0,20,10.2,20,23.7V64.3z M228.1,60.9c0-6.8-2.6-11.9-9.7-11.9c-6,0-9.3,4.3-9.3,11.2v5.1
		c0,6.9,3.3,11.2,9.3,11.2c7,0,9.7-5.1,9.7-11.9V60.9z"/>
	<path class="st0" d="M247.7,64v-2.4c0-14,7.9-24,24.1-24s24.1,10.1,24.1,24V64c0,14-7.9,24-24.1,24C255.6,88,247.7,77.9,247.7,64z
		 M281.3,60.5c0-6.4-2.6-11.5-9.5-11.5c-6.8,0-9.5,5.1-9.5,11.5V65c0,6.4,2.6,11.5,9.5,11.5c6.8,0,9.5-5.1,9.5-11.5V60.5z"/>
	<path class="st0" d="M300.8,64v-2.4c0-14,7.9-24,24.1-24s24.1,10.1,24.1,24V64c0,14-7.9,24-24.1,24C308.8,88,300.8,77.9,300.8,64z
		 M334.5,60.5c0-6.4-2.6-11.5-9.5-11.5s-9.5,5.1-9.5,11.5V65c0,6.4,2.6,11.5,9.5,11.5s9.5-5.1,9.5-11.5V60.5z"/>
	<path class="st0" d="M369.3,61.6l14.5-23.1h15.6l-15.2,23.9L399.9,87h-15.6l-15.1-23.7V87h-14.7V14.2l14.7-1.3v48.7H369.3z"/>
</g>
</svg>
